<svg xmlns="http://www.w3.org/2000/svg" viewBox="0 0 100 100"><path d="M66.32,64.636A66.277,66.277,0,0,1,54.4,64.413a39.5,39.5,0,0,1-11.425-2.974,25.774,25.774,0,0,1-9.335-6.922,21.888,21.888,0,0,1-3.126-4.92,21.265,21.265,0,0,1-1.043-2.73c-.151-.5-.272-.963-.37-1.408l-.142-.713-.068-.443a.278.278,0,0,0,.07-.06l.094-.133-.1-.128a.2.2,0,0,0-.142-.084.345.345,0,0,0-.191-.154A1.413,1.413,0,0,0,27.61,44l-.094.13.094.129a.212.212,0,0,0,.077.068l-.028.588a6.214,6.214,0,0,0,.017.641l.01.171c.033.5.088,1.023.169,1.582a16.357,16.357,0,0,0,.814,3.1,18.607,18.607,0,0,0,3.106,5.643,25.827,25.827,0,0,0,10.274,7.5,36.638,36.638,0,0,0,12.145,2.76c1.159.092,2.342.138,3.557.138a58.613,58.613,0,0,0,8.663-.691l.2-.029-.077-1.1Z"/><path d="M46.928,47.68l-.2-.334-1.56.956.145.316A7.38,7.38,0,0,0,47.86,51.6a11.607,11.607,0,0,0,3.532,1.5,18.545,18.545,0,0,0,3.658.42c.162,0,.321,0,.474,0q.713,0,1.294-.039a3.131,3.131,0,0,0,1.723-.506,3.079,3.079,0,0,0,1.242-1.756,4.922,4.922,0,0,0,.039-2.136c-.018-.113-.033-.209-.042-.306-.062-.465-.1-.95-.125-1.48a16,16,0,0,1,.172-2.948,14.289,14.289,0,0,1,2.035-5.406,17.1,17.1,0,0,1,3.928-4.384,14.033,14.033,0,0,1,5.049-2.789c3.288-1.072,7.251.028,10.873,3.023l.236.2,1.007-.743-.251-.318a14.244,14.244,0,0,0-5.518-4.271,11.306,11.306,0,0,0-7.032-.615,16.168,16.168,0,0,0-6.242,3.147,19.171,19.171,0,0,0-4.7,5.142,16.856,16.856,0,0,0-2.385,6.617,19.079,19.079,0,0,0-.142,3.524c.035.622.094,1.2.18,1.761l.024.144a2.861,2.861,0,0,1,.07,1.072c-.025.058-.039.1-.021.1a2.463,2.463,0,0,1-.35.051c-.527.06-1.058.093-1.585.112a16.19,16.19,0,0,1-3.137-.191C50.538,50.306,48.136,49.653,46.928,47.68Z"/><path d="M35.821,26.416a11.634,11.634,0,0,1,8.6-2.426,9.408,9.408,0,0,1,4.039,1.645,5.987,5.987,0,0,1,1.085.843c.209.189.418.378.614.528.323.325.636.677.938,1.017.2.222.393.443.593.658l.146.157,2.087-1.894-.169-.161q-.309-.3-.614-.6c-.4-.4-.819-.806-1.275-1.2-.243-.168-.476-.351-.709-.533a7.976,7.976,0,0,0-1.432-.963,11.791,11.791,0,0,0-5.087-1.666,12,12,0,0,0-5.293.739,15.065,15.065,0,0,0-4.555,2.7l-.171.148,1.051,1.127Z"/><path d="M49.458,36.3l1.6-1.507-.15-.158c-3.452-3.655-10.125-4.593-14.874-2.089l-.192.1,1.024,1.943.193-.1c3.869-2.041,9.48-1.283,12.252,1.653Z"/><path d="M67.628,39.454l-.206.068.7,2.083.206-.069c4.145-1.393,9.562.258,11.827,3.606l.122.18L82.1,44.09l-.122-.179C79.157,39.75,72.722,37.749,67.628,39.454Z"/><path d="M97.911,58.228c-5.078-7.248-1.1-21.91-1.055-22.057l.442-1.589-1.465-.757a18.539,18.539,0,0,1-9.872-17.658l.109-2.1-2.1-.027c-7.114-.1-13.974-4.231-18.351-11.052L64.54,1.311,62.846,2.352c-5.717,3.515-14.313,3.345-20.437-.4L40.823.979l-1.1,1.5c-4.7,6.362-11.745,10.325-18.846,10.6l-1.731.067-.2,1.721C18.069,22.214,10.967,31.29,7.6,33.217L5.789,34.253l1.09,1.782c2.732,4.462-1.033,17.3-4.758,22.693L.737,60.734,2.683,59.26c.01-.008,1.058-.78,4.7-1.675.295-.072.718-.334,1.374-1.731,1.814-3.86,4.544-15.326,2.469-20.266,3.818-3.168,9.884-11.016,11.467-18.579,7.065-.679,9.481-1.367,19.155-10.733a24.753,24.753,0,0,0,21.424.461A26.731,26.731,0,0,0,81.9,17.973,24.055,24.055,0,0,0,84.215,27.4a21.852,21.852,0,0,0,8.351,9.241c-1.038,4.577-2.8,15.261,1.174,22.547-4.333,5.3-5.492,13.414-5.8,17.819l-.049.714,3.961-2.168.015-.214a23.167,23.167,0,0,1,5.867-14.566l1.112-1.2Z"/><path d="M84.875,90.54c1.7-1.055,2.657-2.439,1.484-4.2-.945-1.418-2.726-2.027-5.739-.056C62.756,97.964,19.144,93.443,19.144,73.821c0-4.531,3.51-6.7,5.315-6.013,0,0-4.7-10.653-18.472-6.141-.021.007-2.863.759-3.864,2.125-1.1,1.5-.4,5.142,3.556,3.808,2.1-.711,3.369-2.813,8.438-2.813a6.052,6.052,0,0,1,4.572,1.882A3.92,3.92,0,0,0,16.1,68.522C6.268,82.806,25.73,94.831,42.277,97.668,57.082,100.206,74.947,96.686,84.875,90.54Z"/><path d="M87.611,81.088a2.3,2.3,0,0,0-.348,2.086A2.381,2.381,0,0,0,89,84.565a4.09,4.09,0,0,0,1.043,0,2.381,2.381,0,0,0,.734-.3,2.57,2.57,0,0,0,1.005-2.483,2.128,2.128,0,0,0-.7-1.391A2.63,2.63,0,0,0,87.611,81.088Z"/></svg>